# xmcd
#
# Track frame offsets:
#	150
#	18230
#	48395
#	60703
#	75403
#	93680
#	106448
#	119023
#	133038
#	152498
#
# Disc length: 2366
#
# Revision: 1
# Processed by: cddbd v1.5.1PL0 Copyright (c) Steve Scherf et al.
# Submitted via: dBpowerAMP V4.0
# Normalized: r0:TRMNUM
#
DISCID=7e093c0a
DTITLE=Little Sonny - New King Of The Blues harmonica
DYEAR=1900
DGENRE=Blues
TTITLE0=Baby What You Want Me To Do
TTITLE1=Elis Porck Chop
TTITLE2=Hey Little Girl
TTITLE3=Hot Potato
TTITLE4=Dont Ask Me No Questions
TTITLE5=Tomorrows Blues today
TTITLE6=back Down Yonder
TTITLE7=Sad Funk
TTITLE8=The Creeper Returns
TTITLE9=Going Down Slow
EXTD=
EXTT0=
EXTT1=
EXTT2=
EXTT3=
EXTT4=
EXTT5=
EXTT6=
EXTT7=
EXTT8=
EXTT9=
PLAYORDER=
